<svg width="216" height="110" viewBox="0 0 216 110" fill="none" xmlns="http://www.w3.org/2000/svg">
<path fill-rule="evenodd" clip-rule="evenodd" d="M154 47.3509C126.87 50.2167 104.774 75.9302 106.205 102.97L106.5 109.049L124.234 108.823H142L140.984 106.515C134.825 90.3625 153.455 73.6937 169.5 81.0016C178.588 85.1406 182.584 92.2281 181.74 102.713L181 109.049L198.615 109.049H216L215.985 101.82C215.917 68.2275 188.065 43.7534 154 47.3509Z" fill="#F2F2F1"/>
<path fill-rule="evenodd" clip-rule="evenodd" d="M113.611 5.15106C129.996 35.1702 174.537 41.113 199.44 16.6039C204.584 11.5406 211 2.14979 211 0.139606C211 -0.174485 188.472 0.139567 160.938 0.139567H110.875L113.611 5.15106Z" fill="#F2F2F1"/>
<path fill-rule="evenodd" clip-rule="evenodd" d="M0 54.4154V108.825H27.79C65 109.822 72.1 106.833 86.17 92.7445C114.172 64.7076 103.884 18.267 66.377 3.40303C57 0.341887 59.5 0.341887 29.75 0.341887L0 0.00585938V54.4154ZM52.355 33.125C62.508 35.9369 69.436 47.8454 66.945 58.2024C64.33 69.071 55.186 74.9231 40.818 74.9231H34V53.4851V32.0471L41.25 32.0531C45.237 32.0561 50.235 32.5387 52.355 33.125Z" fill="#F2F2F1"/>
</svg>
