<svg width="32" height="32" viewBox="0 0 32 32" fill="none" xmlns="http://www.w3.org/2000/svg">
<path d="M11.1999 4.57138H20.7999C24.457 4.57138 27.4284 7.54281 27.4284 11.2V20.8C27.4284 22.558 26.7301 24.244 25.487 25.4871C24.2439 26.7302 22.5579 27.4285 20.7999 27.4285H11.1999C7.54272 27.4285 4.57129 24.4571 4.57129 20.8V11.2C4.57129 9.44195 5.26965 7.75594 6.51275 6.51285C7.75585 5.26975 9.44185 4.57138 11.1999 4.57138ZM10.9713 6.8571C9.88011 6.8571 8.83363 7.29057 8.06205 8.06214C7.29047 8.83372 6.857 9.88021 6.857 10.9714V21.0285C6.857 23.3028 8.697 25.1428 10.9713 25.1428H21.0284C22.1196 25.1428 23.1661 24.7093 23.9377 23.9378C24.7093 23.1662 25.1427 22.1197 25.1427 21.0285V10.9714C25.1427 8.6971 23.3027 6.8571 21.0284 6.8571H10.9713ZM21.9999 8.57138C22.3787 8.57138 22.7421 8.72189 23.01 8.9898C23.2779 9.25771 23.4284 9.62107 23.4284 9.99995C23.4284 10.3788 23.2779 10.7422 23.01 11.0101C22.7421 11.278 22.3787 11.4285 21.9999 11.4285C21.621 11.4285 21.2576 11.278 20.9897 11.0101C20.7218 10.7422 20.5713 10.3788 20.5713 9.99995C20.5713 9.62107 20.7218 9.25771 20.9897 8.9898C21.2576 8.72189 21.621 8.57138 21.9999 8.57138ZM15.9999 10.2857C17.5154 10.2857 18.9688 10.8877 20.0405 11.9593C21.1121 13.031 21.7141 14.4844 21.7141 16C21.7141 17.5155 21.1121 18.9689 20.0405 20.0406C18.9688 21.1122 17.5154 21.7142 15.9999 21.7142C14.4843 21.7142 13.0309 21.1122 11.9593 20.0406C10.8876 18.9689 10.2856 17.5155 10.2856 16C10.2856 14.4844 10.8876 13.031 11.9593 11.9593C13.0309 10.8877 14.4843 10.2857 15.9999 10.2857ZM15.9999 12.5714C15.0905 12.5714 14.2185 12.9326 13.5755 13.5756C12.9325 14.2186 12.5713 15.0906 12.5713 16C12.5713 16.9093 12.9325 17.7813 13.5755 18.4243C14.2185 19.0673 15.0905 19.4285 15.9999 19.4285C16.9092 19.4285 17.7812 19.0673 18.4242 18.4243C19.0672 17.7813 19.4284 16.9093 19.4284 16C19.4284 15.0906 19.0672 14.2186 18.4242 13.5756C17.7812 12.9326 16.9092 12.5714 15.9999 12.5714Z" fill="#F2F2F1"/>
</svg>
