<svg width="32" height="32" viewBox="0 0 32 32" fill="none" xmlns="http://www.w3.org/2000/svg">
<path d="M10.8223 21.1266C14.3855 24.6835 18.7251 27.4286 22.263 27.4286C23.8536 27.4286 25.2465 26.8745 26.3685 25.6435C27.0218 24.9172 27.4289 24.0681 27.4289 23.2315C27.4289 22.616 27.1943 22.0252 26.6031 21.6066L22.83 18.923C22.2509 18.5292 21.7701 18.3322 21.3262 18.3322C20.7591 18.3322 20.2657 18.6526 19.6987 19.2061L18.8234 20.0679C18.6997 20.1929 18.5313 20.2637 18.3553 20.2648C18.158 20.2648 17.985 20.1913 17.8498 20.1293C17.0976 19.7234 15.791 18.6032 14.5701 17.3969C13.3619 16.1906 12.2399 14.8861 11.8454 14.1231C11.7603 13.9725 11.7138 13.8033 11.7102 13.6305C11.7102 13.4708 11.7591 13.3101 11.8949 13.1751L12.7575 12.2771C13.313 11.7105 13.6333 11.2179 13.6333 10.6517C13.6333 10.209 13.4361 9.72904 13.0295 9.15031L10.3784 5.42061C9.94705 4.8298 9.34319 4.57142 8.67727 4.57142C7.86353 4.57142 7.01298 4.94061 6.29814 5.64275C5.10199 6.78761 4.57178 8.20239 4.57178 9.76528C4.57178 13.298 7.27178 17.5818 10.8223 21.1266Z" fill="#F2F2F1"/>
</svg>
