<svg width="28" height="28" viewBox="0 0 28 28" fill="none" xmlns="http://www.w3.org/2000/svg">
<path fill-rule="evenodd" clip-rule="evenodd" d="M10.7485 14.8749C10.6505 15.7779 10.3892 16.4989 9.93416 17.1383C9.32399 17.9911 8.30082 18.7879 6.60916 19.6349C6.50063 19.6826 6.40293 19.7519 6.32199 19.8385C6.24105 19.9251 6.17855 20.0273 6.13829 20.1388C6.09804 20.2503 6.08086 20.3688 6.0878 20.4872C6.09474 20.6055 6.12566 20.7212 6.17867 20.8272C6.23169 20.9333 6.3057 21.0274 6.39621 21.104C6.48672 21.1806 6.59185 21.2379 6.70521 21.2726C6.81857 21.3073 6.93779 21.3186 7.05565 21.3058C7.17351 21.293 7.28754 21.2564 7.39082 21.1983C9.19916 20.2953 10.5093 19.3421 11.3575 18.1533C12.222 16.9446 12.5417 15.5831 12.5417 13.9999V8.74992C12.5417 8.20843 12.3266 7.68913 11.9437 7.30624C11.5608 6.92336 11.0415 6.70825 10.5 6.70825H5.83332C5.29184 6.70825 4.77253 6.92336 4.38965 7.30624C4.00676 7.68913 3.79166 8.20843 3.79166 8.74992V12.8333C3.79166 13.9603 4.70632 14.8749 5.83332 14.8749H10.7485ZM22.4152 14.8749C22.3172 15.7779 22.0558 16.4989 21.6008 17.1383C20.9907 17.9911 19.9675 18.7879 18.2758 19.6349C18.1673 19.6826 18.0696 19.7519 17.9887 19.8385C17.9077 19.9251 17.8452 20.0273 17.805 20.1388C17.7647 20.2503 17.7475 20.3688 17.7545 20.4872C17.7614 20.6055 17.7923 20.7212 17.8453 20.8272C17.8984 20.9333 17.9724 21.0274 18.0629 21.104C18.1534 21.1806 18.2585 21.2379 18.3719 21.2726C18.4852 21.3073 18.6045 21.3186 18.7223 21.3058C18.8402 21.293 18.9542 21.2564 19.0575 21.1983C20.8658 20.2953 22.176 19.3421 23.0242 18.1533C23.8887 16.9446 24.2083 15.5831 24.2083 13.9999V8.74992C24.2083 8.20843 23.9932 7.68913 23.6103 7.30624C23.2274 6.92336 22.7081 6.70825 22.1667 6.70825H17.5C16.9585 6.70825 16.4392 6.92336 16.0563 7.30624C15.6734 7.68913 15.4583 8.20843 15.4583 8.74992V12.8333C15.4583 13.9603 16.373 14.8749 17.5 14.8749H22.4152Z" fill="white"/>
</svg>
