<svg width="36" height="36" viewBox="0 0 36 36" fill="none" xmlns="http://www.w3.org/2000/svg">
<rect width="36" height="36" rx="12" fill="#1B1C1B"/>
<path d="M22.6002 11.82C21.9166 11.0396 21.5399 10.0374 21.5402 9H18.4502V21.4C18.4263 22.071 18.143 22.7066 17.6599 23.1729C17.1768 23.6393 16.5316 23.8999 15.8602 23.9C14.4402 23.9 13.2602 22.74 13.2602 21.3C13.2602 19.58 14.9202 18.29 16.6302 18.82V15.66C13.1802 15.2 10.1602 17.88 10.1602 21.3C10.1602 24.63 12.9202 27 15.8502 27C18.9902 27 21.5402 24.45 21.5402 21.3V15.01C22.7932 15.9099 24.2975 16.3926 25.8402 16.39V13.3C25.8402 13.3 23.9602 13.39 22.6002 11.82Z" fill="#F2F2F1"/>
</svg>
