<svg width="32" height="32" viewBox="0 0 32 32" fill="none" xmlns="http://www.w3.org/2000/svg">
<path fill-rule="evenodd" clip-rule="evenodd" d="M17.657 5.02654C17.6156 5.03825 15.8877 6.49809 13.8173 8.27063L10.0529 11.4934L8.10723 11.509C6.35231 11.5231 6.14059 11.5332 5.94773 11.6121C5.67079 11.7253 5.27234 12.1172 5.12004 12.4262L5 12.6697V16.4238V20.1778L5.12004 20.4214C5.27234 20.7303 5.67079 21.1222 5.94773 21.2354C6.14059 21.3143 6.35231 21.3244 8.10723 21.3385L10.0529 21.3541L13.814 24.5741C15.8827 26.3451 17.6206 27.8072 17.6761 27.8231C18.1296 27.9532 18.5721 27.6999 18.6909 27.2421C18.7551 26.9945 18.7551 5.85306 18.6909 5.60538C18.6359 5.39358 18.4627 5.16106 18.2877 5.06417C18.1694 4.99871 17.8277 4.97833 17.657 5.02654Z" fill="#F2F2F1" fill-opacity="0.5"/>
</svg>
