<svg width="32" height="32" viewBox="0 0 32 32" fill="none" xmlns="http://www.w3.org/2000/svg">
<path fill-rule="evenodd" clip-rule="evenodd" d="M17.657 5.02654C17.6156 5.03825 15.8877 6.49809 13.8173 8.27063L10.0529 11.4934L8.10723 11.509C6.35231 11.5231 6.14059 11.5332 5.94773 11.6121C5.67079 11.7253 5.27234 12.1172 5.12004 12.4262L5 12.6697V16.4238V20.1778L5.12004 20.4214C5.27234 20.7303 5.67079 21.1222 5.94773 21.2354C6.14059 21.3143 6.35231 21.3244 8.10723 21.3385L10.0529 21.3541L13.814 24.5741C15.8827 26.3451 17.6206 27.8072 17.6761 27.8231C18.1296 27.9532 18.5721 27.6999 18.6909 27.2421C18.7551 26.9945 18.7551 5.85306 18.6909 5.60538C18.6359 5.39358 18.4627 5.16106 18.2877 5.06417C18.1694 4.99871 17.8277 4.97833 17.657 5.02654ZM23.8528 8.17016C23.6802 8.25227 23.5398 8.41716 23.4529 8.63977C23.3091 9.0081 23.387 9.23603 23.8363 9.76126C25.169 11.3194 25.9446 13.0542 26.2191 15.0909C26.3087 15.756 26.3087 17.0916 26.2191 17.7567C25.9447 19.7928 25.1511 21.5671 23.8373 23.0813C23.5774 23.3809 23.464 23.5512 23.4272 23.6973C23.2546 24.3837 23.9125 24.9668 24.5088 24.656C24.723 24.5444 25.1512 24.0635 25.6724 23.3493C27.5717 20.747 28.2907 17.218 27.5997 13.8892C27.2947 12.4199 26.654 10.9127 25.8182 9.69881C25.3643 9.03952 24.7312 8.30621 24.5225 8.19809C24.3115 8.08872 24.0471 8.07767 23.8528 8.17016ZM21.7085 10.4734C21.5071 10.5859 21.4139 10.6891 21.3234 10.9003C21.1556 11.2912 21.2295 11.5211 21.7072 12.0959C22.7197 13.3141 23.2497 14.8011 23.2497 16.4238C23.2497 18.0464 22.7197 19.5334 21.7072 20.7516C21.2281 21.3281 21.1559 21.5547 21.3248 21.9528C21.4886 22.339 21.9077 22.5364 22.2825 22.4039C22.5076 22.3244 23.1376 21.5942 23.5428 20.943C24.0973 20.052 24.4506 19.1445 24.6672 18.0546C24.776 17.5074 24.787 17.3573 24.787 16.4238C24.787 15.4903 24.776 15.3401 24.6672 14.7929C24.4499 13.6995 24.0976 12.796 23.5372 11.8953C23.1631 11.2939 22.5417 10.56 22.3241 10.4625C22.1329 10.3769 21.8733 10.3815 21.7085 10.4734Z" fill="#F2F2F1" fill-opacity="0.5"/>
</svg>
